999
dxflib 3.26.4.0
  0
SECTION
  2
HEADER
  9
$ACADVER
  1
AC1015
  9
$HANDSEED
  5
FFFF
  9
$DIMADEC
 70
1
  9
$DIMASZ
 40
2.5
  9
$DIMATFIT
 70
0
  9
$DIMAUNIT
 70
0
  9
$DIMAZIN
 70
2
  9
$DIMBLK
  1
0
  9
$DIMBLK1
  1
0
  9
$DIMBLK2
  1
0
  9
$DIMDEC
 70
3
  9
$DIMDLI
 40
0.0
  9
$DIMDSEP
 70
46
  9
$DIMEXE
 40
1.25
  9
$DIMEXO
 40
0.625
  9
$DIMGAP
 40
0.625
  9
$DIMLFAC
 40
1.0
  9
$DIMLUNIT
 70
2
  9
$DIMSCALE
 40
1.0
  9
$DIMTAD
 70
1
  9
$DIMTIH
 70
0
  9
$DIMTSZ
 40
0.0
  9
$DIMTXT
 40
3.5
  9
$DIMZIN
 70
8
  9
$DWGCODEPAGE
  3
ANSI_1252
  9
$INSUNITS
 70
4
  9
$LTSCALE
 40
1.0
  9
$MAXACTVP
 70
64
  9
$MEASUREMENT
 70
1
  9
$MIRRTEXT
 70
0
  9
$PDMODE
 70
0
  9
$PDSIZE
 40
0.0
  0
ENDSEC
  0
SECTION
  2
TABLES
  0
TABLE
  2
VPORT
  5
8
100
AcDbSymbolTable
 70
1
  0
VPORT
  5
30
100
AcDbSymbolTableRecord
100
AcDbViewportTableRecord
  2
*Active
 70
0
 10
0.0
 20
0.0
 11
1.0
 21
1.0
 12
286.3055555555554861
 22
148.5
 13
0.0
 23
0.0
 14
10.0
 24
10.0
 15
10.0
 25
10.0
 16
0.0
 26
0.0
 36
1.0
 17
0.0
 27
0.0
 37
0.0
 40
297.0
 41
1.92798353909465
 42
50.0
 43
0.0
 44
0.0
 50
0.0
 51
0.0
 71
0
 72
100
 73
1
 74
3
 75
1
 76
1
 77
0
 78
0
281
0
 65
1
110
0.0
120
0.0
130
0.0
111
1.0
121
0.0
131
0.0
112
0.0
122
1.0
132
0.0
 79
0
146
0.0
  0
ENDTAB
  0
TABLE
  2
LTYPE
  5
5
100
AcDbSymbolTable
 70
41
  0
LTYPE
  5
16
100
AcDbSymbolTableRecord
100
AcDbLinetypeTableRecord
  2
Continuous
 70
0
  3
Solid line
 72
65
 73
0
 40
0.0
  0
LTYPE
  5
31
100
AcDbSymbolTableRecord
100
AcDbLinetypeTableRecord
  2
DOT2
 70
0
  3
Dot (.5x) ........................................
 72
65
 73
2
 40
3.1749999999999998
 49
0.1
 74
0
 49
-3.0749999999999997
 74
0
  0
LTYPE
  5
32
100
AcDbSymbolTableRecord
100
AcDbLinetypeTableRecord
  2
CENTER
 70
0
  3
Center ____ _ ____ _ ____ _ ____ _ ____ _ ____
 72
65
 73
4
 40
50.8000000000000043
 49
31.75
 74
0
 49
-6.3499999999999996
 74
0
 49
6.3499999999999996
 74
0
 49
-6.3499999999999996
 74
0
  0
LTYPE
  5
33
100
AcDbSymbolTableRecord
100
AcDbLinetypeTableRecord
  2
ACAD_ISO15W100
 70
0
  3
ISO double-dash triple-dot __ __ . . . __ __ . .
 72
65
 73
10
 40
39.0000000000000071
 49
12.0
 74
0
 49
-3.0
 74
0
 49
12.0
 74
0
 49
-2.9500000000000002
 74
0
 49
0.1
 74
0
 49
-2.9000000000000004
 74
0
 49
0.1
 74
0
 49
-2.9000000000000004
 74
0
 49
0.1
 74
0
 49
-2.9500000000000002
 74
0
  0
LTYPE
  5
34
100
AcDbSymbolTableRecord
100
AcDbLinetypeTableRecord
  2
PHANTOMX2
 70
0
  3
Phantom (2x) ____________    ____    ____   _
 72
65
 73
6
 40
127.0000000000000142
 49
63.5
 74
0
 49
-12.6999999999999993
 74
0
 49
12.6999999999999993
 74
0
 49
-12.6999999999999993
 74
0
 49
12.6999999999999993
 74
0
 49
-12.6999999999999993
 74
0
  0
LTYPE
  5
35
100
AcDbSymbolTableRecord
100
AcDbLinetypeTableRecord
  2
DASHDOT2
 70
0
  3
Dash dot (.5x) _._._._._._._._._._._._._._._.
 72
65
 73
4
 40
12.6999999999999993
 49
6.3499999999999996
 74
0
 49
-3.125
 74
0
 49
0.1
 74
0
 49
-3.125
 74
0
  0
LTYPE
  5
36
100
AcDbSymbolTableRecord
100
AcDbLinetypeTableRecord
  2
ACAD_ISO07W100
 70
0
  3
ISO dot . . . . . . . . . . . . . . . . . . . . 
 72
65
 73
2
 40
3.0
 49
0.1
 74
0
 49
-2.8999999999999999
 74
0
  0
LTYPE
  5
37
100
AcDbSymbolTableRecord
100
AcDbLinetypeTableRecord
  2
DIVIDE
 70
0
  3
Divide ____ . . ____ . . ____ . . ____ . . ____
 72
65
 73
6
 40
31.7500000000000036
 49
12.6999999999999993
 74
0
 49
-6.2999999999999998
 74
0
 49
0.1
 74
0
 49
-6.25
 74
0
 49
0.1
 74
0
 49
-6.2999999999999998
 74
0
  0
LTYPE
  5
38
100
AcDbSymbolTableRecord
100
AcDbLinetypeTableRecord
  2
DASHED
 70
0
  3
Dashed __ __ __ __ __ __ __ __ __ __ __ __ __ _
 72
65
 73
2
 40
19.0499999999999972
 49
12.6999999999999993
 74
0
 49
-6.3499999999999996
 74
0
  0
LTYPE
  5
39
100
AcDbSymbolTableRecord
100
AcDbLinetypeTableRecord
  2
PHANTOM2
 70
0
  3
Phantom (.5x) ___ _ _ ___ _ _ ___ _ _ ___ _ _
 72
65
 73
6
 40
31.7500000000000036
 49
15.875
 74
0
 49
-3.1749999999999998
 74
0
 49
3.1749999999999998
 74
0
 49
-3.1749999999999998
 74
0
 49
3.1749999999999998
 74
0
 49
-3.1749999999999998
 74
0
  0
LTYPE
  5
3A
100
AcDbSymbolTableRecord
100
AcDbLinetypeTableRecord
  2
ACAD_ISO14W100
 70
0
  3
ISO dash triple-dot __ . . . __ . . . __ . . . _
 72
65
 73
8
 40
24.0000000000000036
 49
12.0
 74
0
 49
-2.9500000000000002
 74
0
 49
0.1
 74
0
 49
-2.9000000000000004
 74
0
 49
0.1
 74
0
 49
-2.9000000000000004
 74
0
 49
0.1
 74
0
 49
-2.9500000000000002
 74
0
  0
LTYPE
  5
3B
100
AcDbSymbolTableRecord
100
AcDbLinetypeTableRecord
  2
DIVIDE2
 70
0
  3
Divide (.5x) __..__..__..__..__..__..__..__.._
 72
65
 73
6
 40
15.8749999999999982
 49
6.3499999999999996
 74
0
 49
-3.125
 74
0
 49
0.1
 74
0
 49
-3.0750000000000002
 74
0
 49
0.1
 74
0
 49
-3.125
 74
0
  0
LTYPE
  5
3C
100
AcDbSymbolTableRecord
100
AcDbLinetypeTableRecord
  2
ACAD_ISO06W100
 70
0
  3
ISO long-dash triple-dot ____ ... ____ ... ____
 72
65
 73
8
 40
36.0000000000000071
 49
24.0
 74
0
 49
-2.9500000000000002
 74
0
 49
0.1
 74
0
 49
-2.9000000000000004
 74
0
 49
0.1
 74
0
 49
-2.9000000000000004
 74
0
 49
0.1
 74
0
 49
-2.9500000000000002
 74
0
  0
LTYPE
  5
3D
100
AcDbSymbolTableRecord
100
AcDbLinetypeTableRecord
  2
HIDDENX2
 70
0
  3
Hidden (2x) ____ ____ ____ ____ ____ ____ ____ 
 72
65
 73
2
 40
19.0499999999999972
 49
12.6999999999999993
 74
0
 49
-6.3499999999999996
 74
0
  0
LTYPE
  5
15
100
AcDbSymbolTableRecord
100
AcDbLinetypeTableRecord
  2
BYLAYER
 70
0
  3

 72
65
 73
0
 40
0.0
  0
LTYPE
  5
3E
100
AcDbSymbolTableRecord
100
AcDbLinetypeTableRecord
  2
ACAD_ISO13W100
 70
0
  3
ISO double-dash double-dot __ __ . . __ __ . . _
 72
65
 73
8
 40
36.0000000000000071
 49
12.0
 74
0
 49
-3.0
 74
0
 49
12.0
 74
0
 49
-2.9500000000000002
 74
0
 49
0.1
 74
0
 49
-2.9000000000000004
 74
0
 49
0.1
 74
0
 49
-2.9500000000000002
 74
0
  0
LTYPE
  5
3F
100
AcDbSymbolTableRecord
100
AcDbLinetypeTableRecord
  2
CENTER2
 70
0
  3
Center (.5x) ___ _ ___ _ ___ _ ___ _ ___ _ ___
 72
65
 73
4
 40
28.5750000000000028
 49
19.0500000000000007
 74
0
 49
-3.1749999999999998
 74
0
 49
3.1749999999999998
 74
0
 49
-3.1749999999999998
 74
0
  0
LTYPE
  5
40
100
AcDbSymbolTableRecord
100
AcDbLinetypeTableRecord
  2
ACAD_ISO05W100
 70
0
  3
ISO long-dash double-dot ____ .. ____ .. ____ . 
 72
65
 73
6
 40
33.0000000000000071
 49
24.0
 74
0
 49
-2.9500000000000002
 74
0
 49
0.1
 74
0
 49
-2.9000000000000004
 74
0
 49
0.1
 74
0
 49
-2.9500000000000002
 74
0
  0
LTYPE
  5
41
100
AcDbSymbolTableRecord
100
AcDbLinetypeTableRecord
  2
BORDER
 70
0
  3
Border __ __ . __ __ . __ __ . __ __ . __ __ .
 72
65
 73
6
 40
44.4499999999999957
 49
12.6999999999999993
 74
0
 49
-6.3499999999999996
 74
0
 49
12.6999999999999993
 74
0
 49
-6.2999999999999998
 74
0
 49
0.1
 74
0
 49
-6.2999999999999998
 74
0
  0
LTYPE
  5
42
100
AcDbSymbolTableRecord
100
AcDbLinetypeTableRecord
  2
ACAD_ISO12W100
 70
0
  3
ISO dash double-dot __ . . __ . . __ . . __ . . 
 72
65
 73
6
 40
21.0
 49
12.0
 74
0
 49
-2.9500000000000002
 74
0
 49
0.1
 74
0
 49
-2.9000000000000004
 74
0
 49
0.1
 74
0
 49
-2.9500000000000002
 74
0
  0
LTYPE
  5
43
100
AcDbSymbolTableRecord
100
AcDbLinetypeTableRecord
  2
ACAD_ISO04W100
 70
0
  3
ISO long-dash dot ____ . ____ . ____ . ____ . _
 72
65
 73
4
 40
30.0
 49
24.0
 74
0
 49
-2.9500000000000002
 74
0
 49
0.1
 74
0
 49
-2.9500000000000002
 74
0
  0
LTYPE
  5
44
100
AcDbSymbolTableRecord
100
AcDbLinetypeTableRecord
  2
DIVIDEX2
 70
0
  3
Divide (2x) ________  .  .  ________  .  .  _
 72
65
 73
6
 40
63.5
 49
25.3999999999999986
 74
0
 49
-12.6499999999999986
 74
0
 49
0.1
 74
0
 49
-12.5999999999999979
 74
0
 49
0.1
 74
0
 49
-12.6499999999999986
 74
0
  0
LTYPE
  5
45
100
AcDbSymbolTableRecord
100
AcDbLinetypeTableRecord
  2
ACAD_ISO11W100
 70
0
  3
ISO double-dash dot __ __ . __ __ . __ __ . __ _
 72
65
 73
6
 40
33.0
 49
12.0
 74
0
 49
-3.0
 74
0
 49
12.0
 74
0
 49
-2.9500000000000002
 74
0
 49
0.1
 74
0
 49
-2.9500000000000002
 74
0
  0
LTYPE
  5
46
100
AcDbSymbolTableRecord
100
AcDbLinetypeTableRecord
  2
HIDDEN
 70
0
  3
Hidden __ __ __ __ __ __ __ __ __ __ __ __ __ __
 72
65
 73
2
 40
9.5249999999999986
 49
6.3499999999999996
 74
0
 49
-3.1749999999999998
 74
0
  0
LTYPE
  5
47
100
AcDbSymbolTableRecord
100
AcDbLinetypeTableRecord
  2
ACAD_ISO03W100
 70
0
  3
ISO dash space __    __    __    __    __    __
 72
65
 73
2
 40
30.0
 49
12.0
 74
0
 49
-18.0
 74
0
  0
LTYPE
  5
48
100
AcDbSymbolTableRecord
100
AcDbLinetypeTableRecord
  2
BORDERX2
 70
0
  3
Border (2x) ____  ____  .  ____  ____  .  ___
 72
65
 73
6
 40
88.8999999999999773
 49
25.3999999999999986
 74
0
 49
-12.6999999999999993
 74
0
 49
25.3999999999999986
 74
0
 49
-12.6499999999999986
 74
0
 49
0.1
 74
0
 49
-12.6499999999999986
 74
0
  0
LTYPE
  5
49
100
AcDbSymbolTableRecord
100
AcDbLinetypeTableRecord
  2
PHANTOM
 70
0
  3
Phantom ______  __  __  ______  __  __  ______ 
 72
65
 73
6
 40
63.5000000000000071
 49
31.75
 74
0
 49
-6.3499999999999996
 74
0
 49
6.3499999999999996
 74
0
 49
-6.3499999999999996
 74
0
 49
6.3499999999999996
 74
0
 49
-6.3499999999999996
 74
0
  0
LTYPE
  5
4A
100
AcDbSymbolTableRecord
100
AcDbLinetypeTableRecord
  2
ACAD_ISO10W100
 70
0
  3
ISO dash dot __ . __ . __ . __ . __ . __ . __ . 
 72
65
 73
4
 40
18.0
 49
12.0
 74
0
 49
-2.9500000000000002
 74
0
 49
0.1
 74
0
 49
-2.9500000000000002
 74
0
  0
LTYPE
  5
4B
100
AcDbSymbolTableRecord
100
AcDbLinetypeTableRecord
  2
BORDER2
 70
0
  3
Border (.5x) __.__.__.__.__.__.__.__.__.__.__.
 72
65
 73
6
 40
22.2250000000000014
 49
6.3499999999999996
 74
0
 49
-3.1749999999999998
 74
0
 49
6.3499999999999996
 74
0
 49
-3.125
 74
0
 49
0.1
 74
0
 49
-3.125
 74
0
  0
LTYPE
  5
4C
100
AcDbSymbolTableRecord
100
AcDbLinetypeTableRecord
  2
ACAD_ISO02W100
 70
0
  3
ISO dash __ __ __ __ __ __ __ __ __ __ __ __ __
 72
65
 73
2
 40
15.0
 49
12.0
 74
0
 49
-3.0
 74
0
  0
LTYPE
  5
4D
100
AcDbSymbolTableRecord
100
AcDbLinetypeTableRecord
  2
DASHED2
 70
0
  3
Dashed (.5x) _ _ _ _ _ _ _ _ _ _ _ _ _ _ _ _ _ 
 72
65
 73
2
 40
9.5249999999999986
 49
6.3499999999999996
 74
0
 49
-3.1749999999999998
 74
0
  0
LTYPE
  5
4E
100
AcDbSymbolTableRecord
100
AcDbLinetypeTableRecord
  2
DOT
 70
0
  3
Dot . . . . . . . . . . . . . . . . . . . . . . . .
 72
65
 73
2
 40
6.3499999999999996
 49
0.1
 74
0
 49
-6.25
 74
0
  0
LTYPE
  5
4F
100
AcDbSymbolTableRecord
100
AcDbLinetypeTableRecord
  2
HIDDEN2
 70
0
  3
Hidden (.5x) _ _ _ _ _ _ _ _ _ _ _ _ _ _ _ _ _ 
 72
65
 73
2
 40
4.7624999999999993
 49
3.1749999999999998
 74
0
 49
-1.5874999999999999
 74
0
  0
LTYPE
  5
50
100
AcDbSymbolTableRecord
100
AcDbLinetypeTableRecord
  2
DASHEDX2
 70
0
  3
Dashed (2x) ____  ____  ____  ____  ____  ___
 72
65
 73
2
 40
38.0999999999999943
 49
25.3999999999999986
 74
0
 49
-12.6999999999999993
 74
0
  0
LTYPE
  5
51
100
AcDbSymbolTableRecord
100
AcDbLinetypeTableRecord
  2
DOTX2
 70
0
  3
Dot (2x) .  .  .  .  .  .  .  .  .  .  .  .  .  .
 72
65
 73
2
 40
12.6999999999999993
 49
0.1
 74
0
 49
-12.5999999999999996
 74
0
  0
LTYPE
  5
52
100
AcDbSymbolTableRecord
100
AcDbLinetypeTableRecord
  2
ACAD_ISO09W100
 70
0
  3
ISO long-dash double-short-dash ____ __ __ ____
 72
65
 73
6
 40
45.0
 49
24.0
 74
0
 49
-3.0
 74
0
 49
6.0
 74
0
 49
-3.0
 74
0
 49
6.0
 74
0
 49
-3.0
 74
0
  0
LTYPE
  5
53
100
AcDbSymbolTableRecord
100
AcDbLinetypeTableRecord
  2
CENTERX2
 70
0
  3
Center (2x) ________  __  ________  __  _____
 72
65
 73
4
 40
101.6000000000000085
 49
63.5
 74
0
 49
-12.6999999999999993
 74
0
 49
12.6999999999999993
 74
0
 49
-12.6999999999999993
 74
0
  0
LTYPE
  5
14
100
AcDbSymbolTableRecord
100
AcDbLinetypeTableRecord
  2
BYBLOCK
 70
0
  3

 72
65
 73
0
 40
0.0
  0
LTYPE
  5
54
100
AcDbSymbolTableRecord
100
AcDbLinetypeTableRecord
  2
DASHDOT
 70
0
  3
Dash dot __ . __ . __ . __ . __ . __ . __ . __
 72
65
 73
4
 40
25.4000000000000021
 49
12.6999999999999993
 74
0
 49
-6.2999999999999998
 74
0
 49
0.1
 74
0
 49
-6.2999999999999998
 74
0
  0
LTYPE
  5
55
100
AcDbSymbolTableRecord
100
AcDbLinetypeTableRecord
  2
DASHDOTX2
 70
0
  3
Dash dot (2x) ____  .  ____  .  ____  .  ___
 72
65
 73
4
 40
50.7999999999999972
 49
25.3999999999999986
 74
0
 49
-12.6499999999999986
 74
0
 49
0.1
 74
0
 49
-12.6499999999999986
 74
0
  0
LTYPE
  5
56
100
AcDbSymbolTableRecord
100
AcDbLinetypeTableRecord
  2
ACAD_ISO08W100
 70
0
  3
ISO long-dash short-dash ____ __ ____ __ ____ _
 72
65
 73
4
 40
36.0
 49
24.0
 74
0
 49
-3.0
 74
0
 49
6.0
 74
0
 49
-3.0
 74
0
  0
ENDTAB
  0
TABLE
  2
LAYER
  5
2
100
AcDbSymbolTable
 70
5
  0
LAYER
  5
57
100
AcDbSymbolTableRecord
100
AcDbLayerTableRecord
  2
razm
 70
0
 62
7
420
0
  6
Continuous
370
25
390
F
  0
LAYER
  5
58
100
AcDbSymbolTableRecord
100
AcDbLayerTableRecord
  2
osi
 70
0
 62
5
420
255
  6
ACAD_ISO10W100
370
18
390
F
  0
LAYER
  5
59
100
AcDbSymbolTableRecord
100
AcDbLayerTableRecord
  2
ray1
 70
0
 62
30
420
16744192
  6
Continuous
370
35
390
F
  0
LAYER
  5
10
100
AcDbSymbolTableRecord
100
AcDbLayerTableRecord
  2
0
 70
0
 62
7
420
0
  6
Continuous
370
25
390
F
  0
LAYER
  5
5A
100
AcDbSymbolTableRecord
100
AcDbLayerTableRecord
  2
1
 70
0
 62
252
420
10526884
  6
Continuous
370
25
390
F
  0
ENDTAB
  0
TABLE
  2
STYLE
  5
3
100
AcDbSymbolTable
 70
12
  0
STYLE
  5
5B
100
AcDbSymbolTableRecord
100
AcDbTextStyleTableRecord
  2
Standard
 70
0
 40
0.0
 41
1.0
 50
0.0
 71
0
 42
2.5
  3

  4

1001
ACAD
1000
txt
1071
0
  0
STYLE
  5
5C
100
AcDbSymbolTableRecord
100
AcDbTextStyleTableRecord
  2
textstyle0
 70
0
 40
0.0
 41
1.0
 50
0.0
 71
0
 42
3.5
  3

  4

1001
ACAD
1000
DejaVu Math TeX Gyre
1071
0
  0
STYLE
  5
5D
100
AcDbSymbolTableRecord
100
AcDbTextStyleTableRecord
  2
textstyle1
 70
0
 40
0.0
 41
1.0
 50
0.0
 71
0
 42
3.5
  3

  4

1001
ACAD
1000
DejaVu Math TeX Gyre
1071
0
  0
STYLE
  5
5E
100
AcDbSymbolTableRecord
100
AcDbTextStyleTableRecord
  2
textstyle2
 70
0
 40
0.0
 41
1.0
 50
0.0
 71
0
 42
3.5
  3

  4

1001
ACAD
1000
DejaVu Math TeX Gyre
1071
0
  0
STYLE
  5
5F
100
AcDbSymbolTableRecord
100
AcDbTextStyleTableRecord
  2
textstyle3
 70
0
 40
0.0
 41
1.0
 50
0.0
 71
0
 42
3.5
  3

  4

1001
ACAD
1000
DejaVu Math TeX Gyre
1071
0
  0
STYLE
  5
60
100
AcDbSymbolTableRecord
100
AcDbTextStyleTableRecord
  2
textstyle4
 70
0
 40
0.0
 41
1.0
 50
0.0
 71
0
 42
5.0
  3

  4

1001
ACAD
1000
DejaVu Math TeX Gyre
1071
0
  0
STYLE
  5
61
100
AcDbSymbolTableRecord
100
AcDbTextStyleTableRecord
  2
textstyle5
 70
0
 40
0.0
 41
1.0
 50
0.0
 71
0
 42
3.5
  3

  4

1001
ACAD
1000
Noto Sans
1071
0
  0
STYLE
  5
62
100
AcDbSymbolTableRecord
100
AcDbTextStyleTableRecord
  2
textstyle6
 70
0
 40
0.0
 41
1.0
 50
0.0
 71
0
 42
3.5
  3

  4

1001
ACAD
1000
Noto Sans
1071
0
  0
STYLE
  5
63
100
AcDbSymbolTableRecord
100
AcDbTextStyleTableRecord
  2
textstyle7
 70
0
 40
0.0
 41
1.0
 50
0.0
 71
0
 42
3.5
  3

  4

1001
ACAD
1000
DejaVu Math TeX Gyre
1071
0
  0
STYLE
  5
64
100
AcDbSymbolTableRecord
100
AcDbTextStyleTableRecord
  2
textstyle8
 70
0
 40
0.0
 41
1.0
 50
0.0
 71
0
 42
3.5
  3

  4

1001
ACAD
1000
DejaVu Math TeX Gyre
1071
0
  0
STYLE
  5
65
100
AcDbSymbolTableRecord
100
AcDbTextStyleTableRecord
  2
textstyle9
 70
0
 40
0.0
 41
1.0
 50
0.0
 71
0
 42
3.5
  3

  4

1001
ACAD
1000
DejaVu Math TeX Gyre
1071
0
  0
STYLE
  5
66
100
AcDbSymbolTableRecord
100
AcDbTextStyleTableRecord
  2
textstyle10
 70
0
 40
0.0
 41
1.0
 50
0.0
 71
0
 42
3.5
  3

  4

1001
ACAD
1000
DejaVu Math TeX Gyre
1071
0
  0
ENDTAB
  0
TABLE
  2
VIEW
  5
6
100
AcDbSymbolTable
 70
0
  0
ENDTAB
  0
TABLE
  2
UCS
  5
7
100
AcDbSymbolTable
 70
0
  0
ENDTAB
  0
TABLE
  2
APPID
  5
9
100
AcDbSymbolTable
 70
1
  0
APPID
  5
12
100
AcDbSymbolTableRecord
100
AcDbRegAppTableRecord
  2
ACAD
 70
0
  0
APPID
  5
67
100
AcDbSymbolTableRecord
100
AcDbRegAppTableRecord
  2
QCAD
 70
0
  0
ENDTAB
  0
TABLE
  2
DIMSTYLE
  5
A
100
AcDbSymbolTable
 70
1
100
AcDbDimStyleTable
 71
0
  0
DIMSTYLE
105
27
100
AcDbSymbolTableRecord
100
AcDbDimStyleTableRecord
  2
Standard
 41
2.5
 42
0.625
 43
3.75
 44
1.25
 70
0
 73
0
 74
0
 77
1
 78
8
140
3.5
141
2.5
143
0.03937007874016
147
0.625
171
3
172
1
271
2
272
2
274
3
278
44
283
0
284
8
340
5B
  0
ENDTAB
  0
TABLE
  2
BLOCK_RECORD
  5
1
100
AcDbSymbolTable
 70
1
  0
BLOCK_RECORD
  5
1F
100
AcDbSymbolTableRecord
100
AcDbBlockTableRecord
  2
*Model_Space
340
22
  0
BLOCK_RECORD
  5
1B
100
AcDbSymbolTableRecord
100
AcDbBlockTableRecord
  2
*Paper_Space
340
1E
  0
BLOCK_RECORD
  5
23
100
AcDbSymbolTableRecord
100
AcDbBlockTableRecord
  2
*Paper_Space0
340
26
  0
ENDTAB
  0
ENDSEC
  0
SECTION
  2
BLOCKS
  0
BLOCK
  5
20
100
AcDbEntity
  8
0
100
AcDbBlockBegin
  2
*Model_Space
 70
0
 10
0.0
 20
0.0
 30
0.0
  3
*Model_Space
  1

  0
ENDBLK
  5
21
100
AcDbEntity
  8
0
100
AcDbBlockEnd
  0
BLOCK
  5
1C
100
AcDbEntity
 67
1
  8
0
100
AcDbBlockBegin
  2
*Paper_Space
 70
0
 10
0.0
 20
0.0
 30
0.0
  3
*Paper_Space
  1

  0
ENDBLK
  5
1D
100
AcDbEntity
 67
1
  8
0
100
AcDbBlockEnd
  0
BLOCK
  5
24
100
AcDbEntity
  8
0
100
AcDbBlockBegin
  2
*Paper_Space0
 70
0
 10
0.0
 20
0.0
 30
0.0
  3
*Paper_Space0
  1

  0
ENDBLK
  5
25
100
AcDbEntity
  8
0
100
AcDbBlockEnd
  0
ENDSEC
  0
SECTION
  2
ENTITIES
  0
CIRCLE
  5
68
100
AcDbEntity
  8
1
 62
256
370
-1
 48
1.0
  6
BYLAYER
100
AcDbCircle
 10
0.0
 20
0.0
 30
0.0
 40
100.0
  0
LINE
  5
69
100
AcDbEntity
  8
razm
 62
256
370
-1
 48
1.0
  6
BYLAYER
100
AcDbLine
 10
-164.3750000000000284
 20
92.3760000000000474
 30
0.0
 11
-159.5799522145286744
 21
92.3760000000000474
 31
0.0
  0
LINE
  5
6A
100
AcDbEntity
  8
razm
 62
256
370
-1
 48
1.0
  6
BYLAYER
100
AcDbLine
 10
18.775876624717462
 20
-187.6164503927451506
 30
0.0
 11
20.6971308028242831
 21
-183.223129820779036
 31
0.0
  0
ARC
  5
6B
100
AcDbEntity
  8
razm
 62
256
370
-1
 48
1.0
  6
BYLAYER
100
AcDbCircle
 10
141.2200862706087889
 20
92.3760000000000048
 30
0.0
 40
302.0500384851374633
100
AcDbArc
 50
180.0
 51
246.3796380097470831
  0
SOLID
  5
6C
100
AcDbEntity
  8
razm
 62
256
370
-1
 48
1.0
  6
BYLAYER
100
AcDbTrace
 10
-160.8299522145286744
 20
92.3760000000000474
 30
0.0
 11
-160.4033251830870199
 21
89.8777441499437941
 31
0.0
 12
-161.2358873692484735
 22
89.8742986656158536
 32
0.0
 13
-161.2358873692484735
 23
89.8742986656158536
 33
0.0
 39
0.0
  0
SOLID
  5
6D
100
AcDbEntity
  8
razm
 62
256
370
-1
 48
1.0
  6
BYLAYER
100
AcDbTrace
 10
20.196287468184309
 20
-184.3684053134648195
 30
0.0
 11
17.7415297523226734
 21
-183.737963030051958
 31
0.0
 12
18.0782731526214526
 22
-182.9765330939820558
 32
0.0
 13
18.0782731526214526
 23
-182.9765330939820558
 33
0.0
 39
0.0
  0
MTEXT
  5
6E
100
AcDbEntity
  8
razm
 62
0
370
-1
 48
1.0
  6
BYLAYER
100
AcDbMText
 10
-109.5664452539076166
 20
-71.6704699314537095
 30
0.0
 40
3.5
 41
0.0
 71
5
 72
1
  1
\U+03b3
  7
textstyle9
 50
303.1898190048735842
 73
2
 44
1.0
  0
LINE
  5
6F
100
AcDbEntity
  8
razm
 62
256
370
-1
 48
1.0
  6
BYLAYER
100
AcDbLine
 10
-164.375
 20
92.376000000000019
 30
0.0
 11
-57.0471881996576684
 21
92.3760000000000048
 31
0.0
  0
LINE
  5
70
100
AcDbEntity
  8
razm
 62
256
370
-1
 48
1.0
  6
BYLAYER
100
AcDbLine
 10
-46.1959832658370431
 20
111.4285500000000013
 30
0.0
 11
-46.4353406920849068
 21
112.0059000000000111
 31
0.0
  0
ARC
  5
71
100
AcDbEntity
  8
razm
 62
256
370
-1
 48
1.0
  6
BYLAYER
100
AcDbCircle
 10
-38.2971881996576684
 20
92.3760000000000048
 30
0.0
 40
20.0
100
AcDbArc
 50
112.5178897951263508
 51
180.0
  0
SOLID
  5
72
100
AcDbEntity
  8
razm
 62
256
370
-1
 48
1.0
  6
BYLAYER
100
AcDbTrace
 10
-58.2971881996576684
 20
92.3760000000000048
 30
0.0
 11
-58.5565117714845442
 21
94.8971196325029922
 31
0.0
 12
-57.7255680386188885
 22
94.8451179209975095
 32
0.0
 13
-57.7255680386188885
 23
94.8451179209975095
 33
0.0
 39
0.0
  0
SOLID
  5
73
100
AcDbEntity
  8
razm
 62
256
370
-1
 48
1.0
  6
BYLAYER
100
AcDbTrace
 10
-45.9566258395891865
 20
110.8512000000000057
 30
0.0
 11
-48.0185837614296389
 21
109.377557422962937
 31
0.0
 12
-48.3848489476587602
 22
110.1252348123126268
 32
0.0
 13
-48.3848489476587602
 23
110.1252348123126268
 33
0.0
 39
0.0
  0
MTEXT
  5
74
100
AcDbEntity
  8
razm
 62
0
370
-1
 48
1.0
  6
BYLAYER
100
AcDbMText
 10
-56.9032612318720723
 20
104.8039793739732346
 30
0.0
 40
3.5
 41
0.0
 71
5
 72
1
  1
\U+03b1
  7
textstyle8
 50
56.2589448975631754
 73
2
 44
1.0
  0
LINE
  5
75
100
AcDbEntity
  8
razm
 62
256
370
-1
 48
1.0
  6
BYLAYER
100
AcDbLine
 10
-0.2393574262478816
 20
0.57735
 30
0.0
 11
-30.3161896502670665
 21
73.1251683683164799
 31
0.0
  0
LINE
  5
76
100
AcDbEntity
  8
razm
 62
256
370
-1
 48
1.0
  6
BYLAYER
100
AcDbLine
 10
83.0889373496999042
 20
54.9257091235131298
 30
0.0
 11
-18.3837415320639224
 21
86.2322635006291875
 31
0.0
  0
ARC
  5
77
100
AcDbEntity
  8
razm
 62
256
370
-1
 48
1.0
  6
BYLAYER
100
AcDbCircle
 10
-38.2971881996576542
 20
92.3759999999999764
 30
0.0
 40
22.0896462627560126
100
AcDbArc
 50
292.5178897951263934
 51
342.8538543999999888
  0
SOLID
  5
78
100
AcDbEntity
  8
razm
 62
256
370
-1
 48
1.0
  6
BYLAYER
100
AcDbTrace
 10
-29.8374747977713426
 20
71.9704683683164745
 30
0.0
 11
-27.766840197180322
 21
73.4318941334965984
 31
0.0
 12
-27.405001956913992
 22
72.6820643174255423
 32
0.0
 13
-27.405001956913992
 23
72.6820643174255423
 33
0.0
 39
0.0
  0
SOLID
  5
79
100
AcDbEntity
  8
razm
 62
256
370
-1
 48
1.0
  6
BYLAYER
100
AcDbTrace
 10
-17.1892966734207135
 20
85.8637509775573164
 30
0.0
 11
-17.6700458519570773
 21
83.3753432248701358
 31
0.0
 12
-18.4504569369946267
 22
83.6653952952622006
 32
0.0
 13
-18.4504569369946267
 23
83.6653952952622006
 33
0.0
 39
0.0
  0
MTEXT
  5
7A
100
AcDbEntity
  8
razm
 62
0
370
-1
 48
1.0
  6
BYLAYER
100
AcDbMText
 10
-23.7188948930803107
 20
79.1042012698729167
 30
0.0
 40
3.5
 41
0.0
 71
5
 72
1
  1
\U+03b2
  7
textstyle1
 50
47.6858720975631556
 73
2
 44
1.0
  0
LINE
  5
7B
100
AcDbEntity
  8
razm
 62
256
370
-1
 48
1.0
  6
BYLAYER
100
AcDbLine
 10
-17.7865191027423144
 20
86.048007239093252
 30
0.0
 11
61.7981332556792182
 21
61.4943906981726514
 31
0.0
  0
LINE
  5
7C
100
AcDbEntity
  8
razm
 62
256
370
-1
 48
1.0
  6
BYLAYER
100
AcDbLine
 10
-83.1631212804027058
 20
-54.3993187815899262
 30
0.0
 11
64.5169525148141787
 21
42.2023393618961009
 31
0.0
  0
ARC
  5
7D
100
AcDbEntity
  8
razm
 62
256
370
-1
 48
1.0
  6
BYLAYER
100
AcDbCircle
 10
83.6861597790214518
 20
54.7414528619772156
 30
0.0
 40
24.1560663254530219
100
AcDbArc
 50
162.8538543999999604
 51
213.1898190048735557
  0
SOLID
  5
7E
100
AcDbEntity
  8
razm
 62
256
370
-1
 48
1.0
  6
BYLAYER
100
AcDbTrace
 10
60.6036883970360094
 20
61.8629032212445154
 30
0.0
 11
60.3948108179260359
 21
59.3371037293524495
 31
0.0
 12
59.5876136461133541
 22
59.5410752739507245
 32
0.0
 13
59.5876136461133541
 23
59.5410752739507245
 33
0.0
 39
0.0
  0
SOLID
  5
7F
100
AcDbEntity
  8
razm
 62
256
370
-1
 48
1.0
  6
BYLAYER
100
AcDbTrace
 10
63.4708755175764168
 20
41.518071201121387
 30
0.0
 11
61.8526919715504633
 21
43.4686544286889571
 31
0.0
 12
62.5720782596321783
 22
43.8877666257295758
 32
0.0
 13
62.5720782596321783
 23
43.8877666257295758
 33
0.0
 39
0.0
  0
MTEXT
  5
80
100
AcDbEntity
  8
razm
 62
0
370
-1
 48
1.0
  6
BYLAYER
100
AcDbMText
 10
62.1182221711414826
 20
51.7018940755115821
 30
0.0
 40
3.5
 41
0.0
 71
5
 72
1
  1
\U+03b2
  7
textstyle0
 50
278.0218367024367012
 73
2
 44
1.0
  0
LINE
  5
81
100
AcDbEntity
  8
razm
 62
256
370
-1
 48
1.0
  6
BYLAYER
100
AcDbLine
 10
-83.16312128040272
 20
-54.3993187815899404
 30
0.0
 11
64.6736867022833053
 21
42.3048635685015526
 31
0.0
  0
LINE
  5
82
100
AcDbEntity
  8
razm
 62
256
370
-1
 48
1.0
  6
BYLAYER
100
AcDbLine
 10
69.3625345275234935
 20
-71.4803737856850603
 30
0.0
 11
81.1244792597945548
 21
32.167559120185544
 31
0.0
  0
ARC
  5
83
100
AcDbEntity
  8
razm
 62
256
370
-1
 48
1.0
  6
BYLAYER
100
AcDbCircle
 10
83.6861597790215228
 20
54.7414528619772582
 30
0.0
 40
23.9687782626682981
100
AcDbArc
 50
213.1898190048735557
 51
263.5257836097471227
  0
SOLID
  5
84
100
AcDbEntity
  8
razm
 62
256
370
-1
 48
1.0
  6
BYLAYER
100
AcDbTrace
 10
63.6276097050455505
 20
41.6205954077268387
 30
0.0
 11
65.4393644264204397
 21
39.8483545251510947
 31
0.0
 12
64.7673240849186413
 22
39.3568940032550501
 32
0.0
 13
64.7673240849186413
 23
39.3568940032550501
 33
0.0
 39
0.0
  0
SOLID
  5
85
100
AcDbEntity
  8
razm
 62
256
370
-1
 48
1.0
  6
BYLAYER
100
AcDbTrace
 10
80.9835341520950038
 20
30.9255307482811261
 30
0.0
 11
78.4491125659301503
 21
30.9259047518496857
 31
0.0
 12
78.5859852084796557
 22
31.7471462175037971
 32
0.0
 13
78.5859852084796557
 23
31.7471462175037971
 33
0.0
 39
0.0
  0
MTEXT
  5
86
100
AcDbEntity
  8
razm
 62
0
370
-1
 48
1.0
  6
BYLAYER
100
AcDbMText
 10
72.3577815602025254
 20
36.3577887389392984
 30
0.0
 40
3.5
 41
0.0
 71
5
 72
1
  1
\U+03b2
  7
textstyle10
 50
328.3578013073103534
 73
2
 44
1.0
  0
LINE
  5
87
100
AcDbEntity
  8
razm
 62
256
370
-1
 48
1.0
  6
BYLAYER
100
AcDbLine
 10
0.4330753873354463
 20
-0.4506336748227332
 30
0.0
 11
52.8648039217671126
 21
-55.0081153459688679
 31
0.0
  0
LINE
  5
88
100
AcDbEntity
  8
razm
 62
256
370
-1
 48
1.0
  6
BYLAYER
100
AcDbLine
 10
81.054006705944758
 20
31.5465449342333315
 30
0.0
 11
71.9652012503934628
 21
-48.5453037773869056
 31
0.0
  0
ARC
  5
89
100
AcDbEntity
  8
razm
 62
256
370
-1
 48
1.0
  6
BYLAYER
100
AcDbCircle
 10
69.2920619736737109
 20
-72.1013879716373651
 30
0.0
 40
24.9572726427853375
100
AcDbArc
 50
83.5257836097471227
 51
133.8617482146206612
  0
SOLID
  5
8A
100
AcDbEntity
  8
razm
 62
256
370
-1
 48
1.0
  6
BYLAYER
100
AcDbTrace
 10
51.9986531470961921
 20
-54.1068479963234097
 30
0.0
 11
53.6125907840573959
 21
-52.1527501941914053
 31
0.0
 12
54.1587182610582474
 22
-52.7811739716321426
 32
0.0
 13
54.1587182610582474
 23
-52.7811739716321426
 33
0.0
 39
0.0
  0
SOLID
  5
8B
100
AcDbEntity
  8
razm
 62
256
370
-1
 48
1.0
  6
BYLAYER
100
AcDbTrace
 10
72.1061463580930138
 20
-47.3032754054824807
 30
0.0
 11
69.5849204103976859
 21
-47.5615633009883112
 31
0.0
 12
69.637263462113296
 22
-46.7306410000929162
 32
0.0
 13
69.637263462113296
 23
-46.7306410000929162
 33
0.0
 39
0.0
  0
MTEXT
  5
8C
100
AcDbEntity
  8
razm
 62
0
370
-1
 48
1.0
  6
BYLAYER
100
AcDbMText
 10
60.5317972605152121
 20
-46.2110250932429878
 30
0.0
 40
3.5
 41
0.0
 71
5
 72
1
  1
\U+03b2
  7
textstyle7
 50
18.6937659121839062
 73
2
 44
1.0
  0
LINE
  5
8D
100
AcDbEntity
  8
razm
 62
256
370
-1
 48
1.0
  6
BYLAYER
100
AcDbLine
 10
-0.4787148524957311
 20
1.1547000000000098
 30
0.0
 11
-23.9547298923678298
 21
57.7807988670341004
 31
0.0
  0
LINE
  5
8E
100
AcDbEntity
  8
razm
 62
256
370
-1
 48
1.0
  6
BYLAYER
100
AcDbLine
 10
140.5950862706084195
 20
92.3760000000000332
 30
0.0
 11
-0.8467669506688367
 21
92.3760000000000332
 31
0.0
  0
ARC
  5
8F
100
AcDbEntity
  8
razm
 62
256
370
-1
 48
1.0
  6
BYLAYER
100
AcDbCircle
 10
-38.2971881996576684
 20
92.3760000000000332
 30
0.0
 40
38.7004212489888388
100
AcDbArc
 50
292.5178897951263934
 51
0.0
  0
SOLID
  5
90
100
AcDbEntity
  8
razm
 62
256
370
-1
 48
1.0
  6
BYLAYER
100
AcDbTrace
 10
-23.476015039872113
 20
56.626098867034095
 30
0.0
 11
-21.3704992388917105
 21
58.0368065362976111
 31
0.0
 12
-21.0269779518485471
 22
57.2784103400146876
 32
0.0
 13
-21.0269779518485471
 23
57.2784103400146876
 33
0.0
 39
0.0
  0
SOLID
  5
91
100
AcDbEntity
  8
razm
 62
256
370
-1
 48
1.0
  6
BYLAYER
100
AcDbTrace
 10
0.4032330493311704
 20
92.3760000000000332
 30
0.0
 11
0.7385661457304179
 21
89.8638605471120542
 31
0.0
 12
-0.0935689183527055
 22
89.8907473526415259
 32
0.0
 13
-0.0935689183527055
 23
89.8907473526415259
 33
0.0
 39
0.0
  0
MTEXT
  5
92
100
AcDbEntity
  8
razm
 62
0
370
-1
 48
1.0
  6
BYLAYER
100
AcDbMText
 10
-8.0905539791151391
 20
72.1993928029800571
 30
0.0
 40
3.5
 41
0.0
 71
5
 72
1
  1
\U+03b1
  7
textstyle2
 50
56.2589448975631754
 73
2
 44
1.0
  0
MTEXT
  5
93
100
AcDbEntity
  8
razm
 62
256
370
-1
 48
1.0
  6
BYLAYER
100
AcDbMText
 10
133.4358970989254658
 20
56.2140792484246674
 30
0.0
 40
5.0
 41
0.0
 71
1
 72
1
  1
\U+0418\U+0442\U+043e\U+0433\U+043e \U+03b3 = 2(2\U+03b2 - \U+03b1)
  7
textstyle4
 50
0.0
 73
2
 44
1.0
  0
LINE
  5
94
100
AcDbEntity
  8
razm
 62
256
370
-1
 48
1.0
  6
BYLAYER
100
AcDbLine
 10
-0.2217669506688367
 20
92.3760000000000474
 30
0.0
 11
88.0252422285121554
 21
92.3760000000000332
 31
0.0
  0
LINE
  5
95
100
AcDbEntity
  8
razm
 62
256
370
-1
 48
1.0
  6
BYLAYER
100
AcDbLine
 10
-83.1631212804026916
 20
-54.3993187815899191
 30
0.0
 11
96.7033640913385
 21
63.2563695236933796
 31
0.0
  0
ARC
  5
96
100
AcDbEntity
  8
razm
 62
256
370
-1
 48
1.0
  6
BYLAYER
100
AcDbCircle
 10
141.2200862706088174
 20
92.3760000000000332
 30
0.0
 40
54.4448440420966691
100
AcDbArc
 50
180.0
 51
213.1898190048735557
  0
SOLID
  5
97
100
AcDbEntity
  8
razm
 62
256
370
-1
 48
1.0
  6
BYLAYER
100
AcDbTrace
 10
86.7752422285121554
 20
92.3760000000000332
 30
0.0
 11
87.2488096713881021
 21
89.8862155126708586
 31
0.0
 12
86.4164597766645528
 22
89.8671022203877783
 32
0.0
 13
86.4164597766645528
 23
89.8671022203877783
 33
0.0
 39
0.0
  0
SOLID
  5
98
100
AcDbEntity
  8
razm
 62
256
370
-1
 48
1.0
  6
BYLAYER
100
AcDbTrace
 10
95.6572870941007238
 20
62.5721013629186515
 30
0.0
 11
93.9836287428068147
 21
64.4752988407020808
 31
0.0
 12
94.6906532995111974
 22
64.9149440856498359
 32
0.0
 13
94.6906532995111974
 23
64.9149440856498359
 33
0.0
 39
0.0
  0
MTEXT
  5
99
100
AcDbEntity
  8
razm
 62
256
370
-1
 48
1.0
  6
BYLAYER
100
AcDbMText
 10
109.3569221229254822
 20
87.6027430564246572
 30
0.0
 40
3.5
 41
0.0
 71
5
 72
1
  1
180\U+00b0-(\U+03b1+(180\U+00b0-2\U+03b2))
  7
textstyle5
 50
0.0
 73
2
 44
1.0
  0
LINE
  5
9A
100
AcDbEntity
  8
razm
 62
256
370
-1
 48
1.0
  6
BYLAYER
100
AcDbLine
 10
-30.0768322240191992
 20
72.5478183683164843
 30
0.0
 11
-8.08479676365803
 21
19.5012015489520607
 31
0.0
  0
LINE
  5
9B
100
AcDbEntity
  8
razm
 62
256
370
-1
 48
1.0
  6
BYLAYER
100
AcDbLine
 10
140.6970477719893324
 20
92.0338659196124098
 30
0.0
 11
17.6667172069423088
 21
11.5562928178734694
 31
0.0
  0
ARC
  5
9C
100
AcDbEntity
  8
razm
 62
256
370
-1
 48
1.0
  6
BYLAYER
100
AcDbCircle
 10
-0.0000000000000194
 20
-0.0000000000000046
 30
0.0
 40
22.3606797749979087
100
AcDbArc
 50
33.18981900487357
 51
112.5178897951263934
  0
SOLID
  5
9D
100
AcDbEntity
  8
razm
 62
256
370
-1
 48
1.0
  6
BYLAYER
100
AcDbTrace
 10
-8.5635116161537521
 20
20.6559015489520661
 30
0.0
 11
-6.3419156770008245
 21
21.875657425935767
 31
0.0
 12
-6.0665343992241318
 22
21.089949581353391
 32
0.0
 13
-6.0665343992241318
 23
21.089949581353391
 33
0.0
 39
0.0
  0
SOLID
  5
9E
100
AcDbEntity
  8
razm
 62
256
370
-1
 48
1.0
  6
BYLAYER
100
AcDbTrace
 10
18.7127942041800779
 20
12.2405609786481691
 30
0.0
 11
16.8944054118015217
 21
14.0059943860722811
 31
0.0
 12
17.5645977973636995
 22
14.4999719478326163
 32
0.0
 13
17.5645977973636995
 23
14.4999719478326163
 33
0.0
 39
0.0
  0
MTEXT
  5
9F
100
AcDbEntity
  8
razm
 62
256
370
-1
 48
1.0
  6
BYLAYER
100
AcDbMText
 10
13.0410222189255194
 20
26.5453422244246724
 30
0.0
 40
3.5
 41
0.0
 71
5
 72
1
  1
180\U+00b0-2\U+03b2
  7
textstyle6
 50
0.0
 73
2
 44
1.0
  0
DIMENSION
  5
A0
100
AcDbEntity
  8
razm
 62
256
370
-1
 48
1.0
  6
BYLAYER
100
AcDbDimension
 10
-30.3161896502670665
 20
73.1251683683164799
 30
0.0
 11
-20.5691112578806568
 21
13.7391963372013528
 31
0.0
 70
2
 71
8
 72
2
 74
0
 75
0
 41
1.0
 42
0.0
  1
\U+03b1
  3
Standard
100
AcDb2LineAngularDimension
 13
-49.9999999999999929
 23
-0.0000000000000135
 33
0.0
 14
0.0000000000000056
 24
-0.0000000000000135
 34
0.0
 15
-0.2393574262478816
 25
0.57735
 35
0.0
 16
-20.0
 26
10.0
 36
0.0
  0
LINE
  5
A1
100
AcDbEntity
  8
razm
 62
256
370
-1
 48
1.0
  6
BYLAYER
100
AcDbLine
 10
-49.3749999999999929
 20
92.3759999999999764
 30
0.0
 11
-49.3749999999999929
 21
-0.0000000000000142
 31
0.0
  0
SOLID
  5
A2
100
AcDbEntity
  8
razm
 62
256
370
-1
 48
1.0
  6
BYLAYER
100
AcDbTrace
 10
-49.3749999999999929
 20
92.3759999999999764
 30
0.0
 11
-48.9587153422271513
 21
89.8759999999999764
 31
0.0
 12
-49.7912846577728345
 22
89.8759999999999764
 32
0.0
 13
-49.7912846577728345
 23
89.8759999999999764
 33
0.0
 39
0.0
  0
SOLID
  5
A3
100
AcDbEntity
  8
razm
 62
256
370
-1
 48
1.0
  6
BYLAYER
100
AcDbTrace
 10
-49.3749999999999929
 20
-0.0000000000000142
 30
0.0
 11
-49.7912846577728345
 21
2.4999999999999858
 31
0.0
 12
-48.9587153422271513
 22
2.4999999999999858
 32
0.0
 13
-48.9587153422271513
 23
2.4999999999999858
 33
0.0
 39
0.0
  0
LINE
  5
A4
100
AcDbEntity
  8
razm
 62
256
370
-1
 48
1.0
  6
BYLAYER
100
AcDbLine
 10
-38.9221881996576542
 20
92.3759999999999764
 30
0.0
 11
-50.6249999999999929
 21
92.3759999999999764
 31
0.0
  0
LINE
  5
A5
100
AcDbEntity
  8
razm
 62
256
370
-1
 48
1.0
  6
BYLAYER
100
AcDbLine
 10
-49.3749999999999929
 20
-0.0000000000000137
 30
0.0
 11
-48.1249999999999929
 21
-0.0000000000000145
 31
0.0
  0
MTEXT
  5
A6
100
AcDbEntity
  8
razm
 62
0
370
-1
 48
1.0
  6
BYLAYER
100
AcDbMText
 10
-51.7499999999999929
 20
46.1879999999999811
 30
0.0
 40
3.5
 41
0.0
 71
5
 72
1
  1
r = R*sin(\U+03b1)
  7
textstyle3
 50
90.0
 73
2
 44
1.0
  0
LINE
  5
A7
100
AcDbEntity
  8
ray1
 62
256
370
-1
 48
1.0
  6
BYLAYER
100
AcDbLine
 10
-165.0
 20
92.3760000000000048
 30
0.0
 11
-38.2971881996576684
 21
92.3760000000000048
 31
0.0
  0
LINE
  5
A8
100
AcDbEntity
  8
ray1
 62
256
370
-1
 48
1.0
  6
BYLAYER
100
AcDbLine
 10
18.5254549573974643
 20
-188.1890881390880281
 30
0.0
 11
69.2920619736737109
 21
-72.1013879716372799
 31
0.0
  0
LINE
  5
A9
100
AcDbEntity
  8
osi
 62
256
370
-1
 48
1.0
  6
BYLAYER
100
AcDbLine
 10
0.0
 20
0.0
 30
0.0
 11
-45.9566258395892007
 21
110.8512000000000057
 31
0.0
  0
LINE
  5
AA
100
AcDbEntity
  8
osi
 62
256
370
-1
 48
1.0
  6
BYLAYER
100
AcDbLine
 10
-0.0000000000000142
 20
0.0000000000000071
 30
0.0
 11
83.1504743684083536
 21
-86.5216655659647245
 31
0.0
  0
LINE
  5
AB
100
AcDbEntity
  8
osi
 62
256
370
-1
 48
1.0
  6
BYLAYER
100
AcDbLine
 10
-38.29718819965764
 20
92.3760000000000048
 30
0.0
 11
141.2200862706084195
 21
92.3760000000000048
 31
0.0
  0
LINE
  5
AC
100
AcDbEntity
  8
osi
 62
256
370
-1
 48
1.0
  6
BYLAYER
100
AcDbLine
 10
69.2920619736737109
 20
-72.1013879716372514
 30
0.0
 11
141.2200862706084195
 21
92.3760000000000332
 31
0.0
  0
LINE
  5
AD
100
AcDbEntity
  8
ray1
 62
256
370
-1
 48
1.0
  6
BYLAYER
100
AcDbLine
 10
-38.2971881996576613
 20
92.3759999999999906
 30
0.0
 11
83.6861597790215228
 21
54.7414528619772653
 31
0.0
  0
LINE
  5
AE
100
AcDbEntity
  8
ray1
 62
256
370
-1
 48
1.0
  6
BYLAYER
100
AcDbLine
 10
69.2920619736737109
 20
-72.1013879716372799
 30
0.0
 11
83.6861597790215228
 21
54.7414528619772653
 31
0.0
  0
LINE
  5
AF
100
AcDbEntity
  8
osi
 62
256
370
-1
 48
1.0
  6
BYLAYER
100
AcDbLine
 10
141.2200862706082489
 20
92.3759999999996637
 30
0.0
 11
-83.6861597790216081
 21
-54.741452861977308
 31
0.0
  0
LINE
  5
B0
100
AcDbEntity
  8
osi
 62
256
370
-1
 48
1.0
  6
BYLAYER
100
AcDbLine
 10
-49.9999999999999929
 20
-0.0000000000000135
 30
0.0
 11
0.0000000000000056
 21
-0.0000000000000135
 31
0.0
  0
DIMENSION
  5
B1
100
AcDbEntity
  8
razm
 62
256
370
-1
 48
1.0
  6
BYLAYER
100
AcDbDimension
 10
0.0
 20
0.0
 30
0.0
 11
-48.7299143591870205
 21
-11.4470988266153686
 31
0.0
 70
4
 71
8
 72
2
 74
0
 41
1.0
 42
0.0
  1
R
  3
Standard
100
AcDbRadialDimension
 15
-96.1554037002468931
 25
-27.4615793289924639
 35
0.0
 40
0.0
1001
ACAD
1000
DSTYLE
1002
{
1070
144
1040
1.0
1070
40
1040
1.0
1002
}
  0
ENDSEC
  0
SECTION
  2
OBJECTS
  0
DICTIONARY
  5
C
100
AcDbDictionary
280
0
281
1
  3
ACAD_GROUP
350
D
  3
ACAD_LAYOUT
350
1A
  3
ACAD_MLINESTYLE
350
17
  3
ACAD_PLOTSETTINGS
350
19
  3
ACAD_PLOTSTYLENAME
350
E
  3
AcDbVariableDictionary
350
B2
  3
QCAD_OBJECTS
350
B3
  0
DICTIONARY
  5
D
100
AcDbDictionary
280
0
281
1
  0
ACDBDICTIONARYWDFLT
  5
E
100
AcDbDictionary
281
1
  3
Normal
350
F
100
AcDbDictionaryWithDefault
340
F
  0
ACDBPLACEHOLDER
  5
F
  0
DICTIONARY
  5
17
100
AcDbDictionary
280
0
281
1
  3
Standard
350
18
  0
MLINESTYLE
  5
18
100
AcDbMlineStyle
  2
STANDARD
 70
0
  3

 62
256
 51
90.0
 52
90.0
 71
2
 49
0.5
 62
256
  6
BYLAYER
 49
-0.5
 62
256
  6
BYLAYER
  0
DICTIONARY
  5
19
100
AcDbDictionary
280
0
281
1
  0
DICTIONARY
  5
1A
100
AcDbDictionary
281
1
  3
Layout1
350
1E
  3
Layout2
350
26
  3
Model
350
22
  0
LAYOUT
  5
1E
100
AcDbPlotSettings
  1

  2
none_device
  4

  6

 40
0.0
 41
0.0
 42
0.0
 43
0.0
 44
0.0
 45
0.0
 46
0.0
 47
0.0
 48
0.0
 49
0.0
140
0.0
141
0.0
142
1.0
143
1.0
 70
688
 72
0
 73
0
 74
5
  7

 75
16
147
1.0
148
0.0
149
0.0
100
AcDbLayout
  1
Layout1
 70
1
 71
1
 10
0.0
 20
0.0
 11
420.0
 21
297.0
 12
0.0
 22
0.0
 32
0.0
 14
100000000000000000000.0
 24
100000000000000000000.0
 34
100000000000000000000.0
 15
-100000000000000000000.0
 25
-100000000000000000000.0
 35
-100000000000000000000.0
146
0.0
 13
0.0
 23
0.0
 33
0.0
 16
1.0
 26
0.0
 36
0.0
 17
0.0
 27
1.0
 37
0.0
 76
0
330
1B
  0
LAYOUT
  5
22
100
AcDbPlotSettings
  1

  2
none_device
  4

  6

 40
0.0
 41
0.0
 42
0.0
 43
0.0
 44
0.0
 45
0.0
 46
0.0
 47
0.0
 48
0.0
 49
0.0
140
0.0
141
0.0
142
1.0
143
1.0
 70
1712
 72
0
 73
0
 74
0
  7

 75
0
147
1.0
148
0.0
149
0.0
100
AcDbLayout
  1
Model
 70
1
 71
0
 10
0.0
 20
0.0
 11
12.0
 21
9.0
 12
0.0
 22
0.0
 32
0.0
 14
0.0
 24
0.0
 34
0.0
 15
0.0
 25
0.0
 35
0.0
146
0.0
 13
0.0
 23
0.0
 33
0.0
 16
1.0
 26
0.0
 36
0.0
 17
0.0
 27
1.0
 37
0.0
 76
0
330
1F
  0
LAYOUT
  5
26
100
AcDbPlotSettings
  1

  2
none_device
  4

  6

 40
0.0
 41
0.0
 42
0.0
 43
0.0
 44
0.0
 45
0.0
 46
0.0
 47
0.0
 48
0.0
 49
0.0
140
0.0
141
0.0
142
1.0
143
1.0
 70
688
 72
0
 73
0
 74
5
  7

 75
16
147
1.0
148
0.0
149
0.0
100
AcDbLayout
  1
Layout2
 70
1
 71
2
 10
0.0
 20
0.0
 11
12.0
 21
9.0
 12
0.0
 22
0.0
 32
0.0
 14
0.0
 24
0.0
 34
0.0
 15
0.0
 25
0.0
 35
0.0
146
0.0
 13
0.0
 23
0.0
 33
0.0
 16
1.0
 26
0.0
 36
0.0
 17
0.0
 27
1.0
 37
0.0
 76
0
330
23
  0
DICTIONARY
  5
B2
100
AcDbDictionary
281
1
  3
DIMASSOC
350
B5
  3
HIDETEXT
350
B4
  0
DICTIONARYVAR
  5
B4
100
DictionaryVariables
280
0
  1
2
  0
DICTIONARYVAR
  5
B5
100
DictionaryVariables
280
0
  1
1
  0
DICTIONARY
  5
B3
100
AcDbDictionary
281
1
  3
ColorSettings/BackgroundColor
350
B6
  3
ColorSettings/ColorMode
350
B7
  3
DimensionSettings/AngularFormat
350
B8
  3
DimensionSettings/AngularPrecision
350
B9
  3
DimensionSettings/DecimalPoint
350
BA
  3
DimensionSettings/DimensionFont
350
BB
  3
DimensionSettings/DimensionTextColor
350
BC
  3
DimensionSettings/KeepProportions
350
BD
  3
DimensionSettings/LinearFormat
350
BE
  3
DimensionSettings/LinearPrecision
350
BF
  3
Grid/DisplayGrid00
350
C0
  3
Grid/DisplayGrid01
350
C1
  3
Grid/DisplayGrid02
350
C2
  3
Grid/DisplayGrid03
350
C3
  3
Grid/GridSpacingX00
350
C4
  3
Grid/GridSpacingX01
350
C5
  3
Grid/GridSpacingX02
350
C6
  3
Grid/GridSpacingX03
350
C7
  3
Grid/GridSpacingY00
350
C8
  3
Grid/GridSpacingY01
350
C9
  3
Grid/GridSpacingY02
350
CA
  3
Grid/GridSpacingY03
350
CB
  3
Grid/IsometricGrid00
350
CC
  3
Grid/IsometricGrid01
350
CD
  3
Grid/IsometricGrid02
350
CE
  3
Grid/IsometricGrid03
350
CF
  3
Grid/IsometricProjection00
350
D0
  3
Grid/IsometricProjection01
350
D1
  3
Grid/IsometricProjection02
350
D2
  3
Grid/IsometricProjection03
350
D3
  3
Grid/MetaGridSpacingX00
350
D4
  3
Grid/MetaGridSpacingX01
350
D5
  3
Grid/MetaGridSpacingX02
350
D6
  3
Grid/MetaGridSpacingX03
350
D7
  3
Grid/MetaGridSpacingY00
350
D8
  3
Grid/MetaGridSpacingY01
350
D9
  3
Grid/MetaGridSpacingY02
350
DA
  3
Grid/MetaGridSpacingY03
350
DB
  3
MultiPageSettings/Columns
350
DC
  3
MultiPageSettings/GlueMarginsBottom
350
DD
  3
MultiPageSettings/GlueMarginsLeft
350
DE
  3
MultiPageSettings/GlueMarginsRight
350
DF
  3
MultiPageSettings/GlueMarginsTop
350
E0
  3
MultiPageSettings/PrintCropMarks
350
E1
  3
MultiPageSettings/Rows
350
E2
  3
PageSettings/OffsetX
350
E3
  3
PageSettings/OffsetY
350
E4
  3
PageSettings/PageOrientation
350
E5
  3
PageSettings/PaperHeight
350
E6
  3
PageSettings/PaperSizeName
350
E7
  3
PageSettings/PaperWidth
350
E8
  3
PageSettings/PointSize
350
E9
  3
PageSettings/Scale
350
EA
  3
PageSettings/ShowPaperBorders
350
EB
  3
PageTagSettings/EnablePageTags
350
EC
  3
PageTagSettings/TagAlignment
350
ED
  3
PageTagSettings/TagFont
350
EE
  3
PageTagSettings/TagPosition
350
EF
  3
QCADVersion
350
F0
  3
UnitSettings/PaperUnit
350
F1
  3
ViewportCenter
350
F2
  3
ViewportHeight
350
F3
  3
ViewportWidth
350
F4
  0
XRECORD
  5
B6
330
B3
100
AcDbXrecord
280
1
1000
White
  0
XRECORD
  5
B7
330
B3
100
AcDbXrecord
280
1
1000
FullColor
  0
XRECORD
  5
B8
330
B3
100
AcDbXrecord
280
1
 90
0
  0
XRECORD
  5
B9
330
B3
100
AcDbXrecord
280
1
 90
1
  0
XRECORD
  5
BA
330
B3
100
AcDbXrecord
280
1
 90
46
  0
XRECORD
  5
BB
330
B3
100
AcDbXrecord
280
1
1000
Noto Sans
  0
XRECORD
  5
BC
330
B3
100
AcDbXrecord
280
1
1000
By Layer
  0
XRECORD
  5
BD
330
B3
100
AcDbXrecord
280
1
290
0
  0
XRECORD
  5
BE
330
B3
100
AcDbXrecord
280
1
 90
2
  0
XRECORD
  5
BF
330
B3
100
AcDbXrecord
280
1
 90
3
  0
XRECORD
  5
C0
330
B3
100
AcDbXrecord
280
1
290
1
  0
XRECORD
  5
C1
330
B3
100
AcDbXrecord
280
1
290
1
  0
XRECORD
  5
C2
330
B3
100
AcDbXrecord
280
1
290
1
  0
XRECORD
  5
C3
330
B3
100
AcDbXrecord
280
1
290
1
  0
XRECORD
  5
C4
330
B3
100
AcDbXrecord
280
1
1000
auto
  0
XRECORD
  5
C5
330
B3
100
AcDbXrecord
280
1
1000
auto
  0
XRECORD
  5
C6
330
B3
100
AcDbXrecord
280
1
1000
auto
  0
XRECORD
  5
C7
330
B3
100
AcDbXrecord
280
1
1000
auto
  0
XRECORD
  5
C8
330
B3
100
AcDbXrecord
280
1
1000
auto
  0
XRECORD
  5
C9
330
B3
100
AcDbXrecord
280
1
1000
auto
  0
XRECORD
  5
CA
330
B3
100
AcDbXrecord
280
1
1000
auto
  0
XRECORD
  5
CB
330
B3
100
AcDbXrecord
280
1
1000
auto
  0
XRECORD
  5
CC
330
B3
100
AcDbXrecord
280
1
290
0
  0
XRECORD
  5
CD
330
B3
100
AcDbXrecord
280
1
290
0
  0
XRECORD
  5
CE
330
B3
100
AcDbXrecord
280
1
290
0
  0
XRECORD
  5
CF
330
B3
100
AcDbXrecord
280
1
290
0
  0
XRECORD
  5
D0
330
B3
100
AcDbXrecord
280
1
 90
65537
  0
XRECORD
  5
D1
330
B3
100
AcDbXrecord
280
1
 90
65537
  0
XRECORD
  5
D2
330
B3
100
AcDbXrecord
280
1
 90
65537
  0
XRECORD
  5
D3
330
B3
100
AcDbXrecord
280
1
 90
65537
  0
XRECORD
  5
D4
330
B3
100
AcDbXrecord
280
1
1000
auto
  0
XRECORD
  5
D5
330
B3
100
AcDbXrecord
280
1
1000
auto
  0
XRECORD
  5
D6
330
B3
100
AcDbXrecord
280
1
1000
auto
  0
XRECORD
  5
D7
330
B3
100
AcDbXrecord
280
1
1000
auto
  0
XRECORD
  5
D8
330
B3
100
AcDbXrecord
280
1
1000
auto
  0
XRECORD
  5
D9
330
B3
100
AcDbXrecord
280
1
1000
auto
  0
XRECORD
  5
DA
330
B3
100
AcDbXrecord
280
1
1000
auto
  0
XRECORD
  5
DB
330
B3
100
AcDbXrecord
280
1
1000
auto
  0
XRECORD
  5
DC
330
B3
100
AcDbXrecord
280
1
 90
1
  0
XRECORD
  5
DD
330
B3
100
AcDbXrecord
280
1
 40
10.0
  0
XRECORD
  5
DE
330
B3
100
AcDbXrecord
280
1
 40
10.0
  0
XRECORD
  5
DF
330
B3
100
AcDbXrecord
280
1
 40
10.0
  0
XRECORD
  5
E0
330
B3
100
AcDbXrecord
280
1
 40
10.0
  0
XRECORD
  5
E1
330
B3
100
AcDbXrecord
280
1
290
0
  0
XRECORD
  5
E2
330
B3
100
AcDbXrecord
280
1
 90
1
  0
XRECORD
  5
E3
330
B3
100
AcDbXrecord
280
1
 40
-244.5727579650032908
  0
XRECORD
  5
E4
330
B3
100
AcDbXrecord
280
1
 40
-223.6039615607101041
  0
XRECORD
  5
E5
330
B3
100
AcDbXrecord
280
1
1000
Landscape
  0
XRECORD
  5
E6
330
B3
100
AcDbXrecord
280
1
1000
148
  0
XRECORD
  5
E7
330
B3
100
AcDbXrecord
280
1
1000
ISO A6
  0
XRECORD
  5
E8
330
B3
100
AcDbXrecord
280
1
1000
105
  0
XRECORD
  5
E9
330
B3
100
AcDbXrecord
280
1
1000
0.5
  0
XRECORD
  5
EA
330
B3
100
AcDbXrecord
280
1
 40
0.283
  0
XRECORD
  5
EB
330
B3
100
AcDbXrecord
280
1
290
1
  0
XRECORD
  5
EC
330
B3
100
AcDbXrecord
280
1
290
0
  0
XRECORD
  5
ED
330
B3
100
AcDbXrecord
280
1
1000
Inside
  0
XRECORD
  5
EE
330
B3
100
AcDbXrecord
280
1
1000
Arial,10,-1,5,50,0,0,0,0,0
  0
XRECORD
  5
EF
330
B3
100
AcDbXrecord
280
1
1000
TopLeft
  0
XRECORD
  5
F0
330
B3
100
AcDbXrecord
280
1
1000
3.27.8.4
  0
XRECORD
  5
F1
330
B3
100
AcDbXrecord
280
1
 90
4
  0
XRECORD
  5
F3
330
B3
100
AcDbXrecord
280
1
 40
323.2447606571460597
  0
XRECORD
  5
F4
330
B3
100
AcDbXrecord
280
1
 40
506.6589226030547479
  0
ENDSEC
  0
EOF
